<svg width="183" height="40" viewBox="0 0 183 40" fill="none" xmlns="http://www.w3.org/2000/svg">
<path d="M25.1376 22.3098V9.39759C25.1376 7.83164 23.8739 6.56789 22.3079 6.56789H21.4151C19.8491 6.56789 18.5854 5.30414 18.5854 3.73819V2.84532C18.5854 1.27937 17.3216 0.015625 15.7557 0.015625H6.566H0V6.56789V25.1395V31.6918H15.7419C17.3079 31.6918 18.5716 30.428 18.5716 28.8621V27.9692C18.5716 26.4033 17.3079 25.1395 15.7419 25.1395H9.38197C7.81602 25.1395 6.55227 23.8758 6.55227 22.3098V9.39759C6.55227 7.83164 7.81602 6.56789 9.38197 6.56789H15.7419C17.3079 6.56789 18.5716 7.83164 18.5716 9.39759V22.3098C18.5716 23.8758 19.8354 25.1395 21.4013 25.1395H22.2942C23.8739 25.1395 25.1376 23.8758 25.1376 22.3098Z" fill="#221F20"/>
<path d="M27.7344 21.4572C27.7344 15.5643 32.3498 11.0312 38.2427 11.0312C43.7236 11.0312 48.0093 15.2758 48.0093 20.6742C48.0093 21.3748 47.9681 22.3226 47.8445 23.1056H33.38C33.9158 25.7017 35.7702 27.1028 38.49 27.1028C40.3032 27.1028 42.1576 26.2375 42.8582 25.0424L47.4324 27.8446C45.9489 30.5232 42.5697 32.0892 38.3664 32.0892C32.4322 32.0892 27.7344 27.4737 27.7344 21.4572ZM42.1576 19.1495C41.8691 17.2126 40.0971 15.8527 37.9543 15.8527C35.5641 15.8527 34.0394 17.0478 33.4212 19.1495H42.1576Z" fill="#221F20"/>
<path d="M49.3965 29.2045L51.5806 24.8776C53.1053 26.2787 56.2372 27.2677 58.5037 27.2677C59.9048 27.2677 60.8939 26.6496 60.8939 25.8254C60.8939 23.188 50.2619 25.2072 50.2619 17.7484C50.2619 13.7923 53.641 11.0312 58.5037 11.0312C61.306 11.0312 64.3554 11.7318 66.3747 13.339L64.2318 17.8308C62.4598 16.5121 59.3691 15.8527 57.8856 15.8527C56.7729 15.8527 56.0312 16.3885 56.0312 17.2126C56.0312 19.644 66.7456 18.3665 66.7456 25.6193C66.7456 29.3694 63.3664 32.1304 58.6274 32.1304C55.1658 32.1304 51.4982 30.9765 49.3965 29.2045Z" fill="#221F20"/>
<path d="M75.922 5.14341C75.922 7.08024 74.3148 8.6874 72.378 8.6874C70.4412 8.6874 68.834 7.08024 68.834 5.14341C68.834 3.24778 70.4412 1.64062 72.378 1.64062C74.3148 1.64062 75.922 3.24778 75.922 5.14341ZM75.2626 11.4484V31.6822H69.4521V11.4484H75.2626Z" fill="#221F20"/>
<path d="M79.0818 36.787L81.9252 32.7485C83.7384 34.1496 86.0049 34.7678 88.3951 34.7678C90.8676 34.7678 93.7111 32.9958 93.7111 30.2348V28.2567C92.3099 30.3172 90.1671 31.471 87.3236 31.471C82.0489 31.471 77.8867 26.8556 77.8867 21.2099C77.8867 15.5643 82.0489 11.0312 87.3236 11.0312C90.1671 11.0312 92.3099 12.1851 93.7111 14.2044V11.4021H99.5216V30.2348C99.5216 36.3337 94.494 40.0013 88.3951 40.0013C85.0571 40.0013 81.0598 38.8063 79.0818 36.787ZM93.7111 21.2099C93.7111 18.4901 91.4858 16.3885 88.6423 16.3885C85.8401 16.3885 83.5736 18.5313 83.5736 21.2099C83.5736 23.9297 85.8401 26.0726 88.6423 26.0726C91.4858 26.0726 93.7111 23.9709 93.7111 21.2099Z" fill="#221F20"/>
<path d="M109.107 14.0807C110.385 12.1439 112.28 11.0312 114.588 11.0312C119.781 11.0312 122.912 14.4928 122.912 20.2209V31.6771H117.102V20.9627C117.102 18.3253 115.495 16.5945 113.105 16.5945C110.673 16.5945 109.107 18.3253 109.107 20.9627V31.6771H103.297V11.4433H109.107V14.0807Z" fill="#221F20"/>
<path d="M132.459 31.6762H126.648V0H132.459V31.6762Z" fill="#221F20"/>
<path d="M156.924 31.6771H151.113V28.7924C149.712 30.8941 147.569 32.0892 144.726 32.0892C139.451 32.0892 135.289 27.3501 135.289 21.5396C135.289 15.7291 139.451 11.0312 144.726 11.0312C147.569 11.0312 149.712 12.2263 151.113 14.328V11.4433H156.924V31.6771ZM151.113 21.5396C151.113 18.7374 148.888 16.5533 146.045 16.5533C143.242 16.5533 140.976 18.7786 140.976 21.5396C140.976 24.3418 143.242 26.5259 146.045 26.5259C148.888 26.5259 151.113 24.383 151.113 21.5396Z" fill="#221F20"/>
<path d="M166.514 0V14.3271C167.915 12.2254 170.058 11.0303 172.901 11.0303C178.176 11.0303 182.338 15.7282 182.338 21.5387C182.338 27.3492 178.176 32.0883 172.901 32.0883C170.058 32.0883 167.915 30.8932 166.514 28.7915V31.6762H160.703V0H166.514ZM176.651 21.5387C176.651 18.7777 174.385 16.5524 171.582 16.5524C168.739 16.5524 166.514 18.7365 166.514 21.5387C166.514 24.3821 168.739 26.525 171.582 26.525C174.385 26.525 176.651 24.3409 176.651 21.5387Z" fill="#221F20"/>
</svg>
