<svg xmlns="http://www.w3.org/2000/svg" width="194" height="26" viewBox="0 0 194 26" fill="none" aria-label="Thomson Reuters" role="img"><title>Thomson Reuters</title><path d="M22.5013 3.4896C22.8329 3.82113 23.0162 4.26356 23.0162 4.732C23.0162 5.20045 22.834 5.64288 22.5013 5.97441C21.8168 6.65898 20.7022 6.65898 20.0177 5.97441C19.6861 5.64288 19.5028 5.20272 19.5028 4.732C19.5028 4.26129 19.685 3.82113 20.0177 3.4896C20.3605 3.14675 20.8097 2.97476 21.2601 2.97476C21.7104 2.97476 22.1608 3.14675 22.5025 3.4896H22.5013Z" fill="#D64000"></path><path d="M3.49978 22.5059C2.81522 21.8213 2.81522 20.7068 3.49978 20.0222C3.83132 19.6907 4.27148 19.5074 4.74219 19.5074C5.2129 19.5074 5.65306 19.6895 5.9846 20.0222C6.66916 20.7068 6.66916 21.8213 5.9846 22.5059C5.65193 22.8385 5.21064 23.0207 4.74219 23.0207C4.27374 23.0207 3.83132 22.8385 3.49978 22.5059Z" fill="#D64000"></path><path d="M16.889 3.62651L16.8766 3.62085C16.502 3.46357 16.2112 3.16938 16.0562 2.79372C15.8989 2.41466 15.8989 1.99826 16.0562 1.61694C16.2135 1.23788 16.5088 0.942554 16.8879 0.785273C17.078 0.706067 17.2771 0.666464 17.4763 0.666464C17.6754 0.666464 17.8757 0.706067 18.0647 0.785273C18.8488 1.11002 19.2211 2.01071 18.8963 2.79372C18.5716 3.57786 17.6709 3.95013 16.8879 3.62538L16.889 3.62651Z" fill="#D64000"></path><path d="M8.52938 22.2558C8.72853 22.2558 8.92767 22.2954 9.11664 22.3724C9.90078 22.6971 10.273 23.5978 9.9483 24.3808C9.79102 24.7599 9.49569 25.0563 9.11664 25.2125C8.73758 25.3709 8.32005 25.3709 7.93986 25.2125C7.15572 24.8877 6.78345 23.9882 7.10819 23.204C7.26547 22.825 7.5608 22.5285 7.93986 22.3724C8.12995 22.2931 8.3291 22.2535 8.52825 22.2535L8.53051 22.2558H8.52938Z" fill="#D64000"></path><path d="M14.3182 1.31709C14.3182 2.02428 13.7592 2.60249 13.0611 2.63417H13.0011C12.2736 2.63417 11.684 2.04239 11.684 1.31709C11.684 0.591784 12.2747 0 13 0C13.7253 0 14.3171 0.594046 14.3171 1.31935V1.31709H14.3182Z" fill="#D64000"></path><path d="M11.6806 24.6829C11.6806 23.9553 12.2724 23.3658 12.9977 23.3658C13.723 23.3658 14.3148 23.9576 14.3148 24.6829C14.3148 25.4082 13.723 26 12.9977 26C12.2724 26 11.6806 25.4082 11.6806 24.6829Z" fill="#D64000"></path><path d="M8.9537 3.22143C8.68213 3.33345 8.38568 3.33345 8.11298 3.22143C7.84028 3.10828 7.62869 2.89668 7.5178 2.62625C7.28584 2.06502 7.55175 1.42232 8.11298 1.19036C8.24989 1.13378 8.39133 1.10662 8.53164 1.10662C8.96388 1.10662 9.37236 1.36348 9.54888 1.78553C9.6609 2.05823 9.6609 2.35695 9.54888 2.62625C9.43686 2.89895 9.22639 3.11054 8.9537 3.22143Z" fill="#D64000"></path><path d="M17.0452 22.7786C17.1821 22.722 17.3247 22.6926 17.4672 22.6926C17.6098 22.6926 17.7524 22.722 17.887 22.7763C18.1597 22.8895 18.3713 23.1011 18.4822 23.3715C18.5942 23.6442 18.5942 23.9429 18.4822 24.2122C18.3702 24.4849 18.1597 24.6965 17.887 24.8074C17.6143 24.9183 17.3179 24.9183 17.0452 24.8074C16.7725 24.6954 16.5609 24.4849 16.45 24.2122C16.338 23.9395 16.338 23.643 16.45 23.3715C16.562 23.0999 16.7725 22.8895 17.0452 22.7774V22.7786Z" fill="#D64000"></path><path d="M5.36113 4.12212C5.69945 4.46044 5.70398 5.00357 5.3781 5.34868L5.35887 5.36792C5.01602 5.71077 4.45705 5.71077 4.11307 5.36792C3.77022 5.02507 3.77022 4.4661 4.11307 4.12212C4.28506 3.95013 4.5091 3.86526 4.7354 3.86526C4.9617 3.86526 5.18688 3.95126 5.35773 4.12212H5.36113Z" fill="#D64000"></path><path d="M20.6298 20.6377C20.7995 20.4657 21.0258 20.3809 21.251 20.3809C21.4762 20.3809 21.7025 20.4669 21.8734 20.6377C22.0397 20.8029 22.1302 21.0236 22.1302 21.2589C22.1302 21.4943 22.0397 21.7149 21.8734 21.8813C21.5305 22.2264 20.9727 22.2241 20.6276 21.8813C20.4612 21.7149 20.3707 21.492 20.3707 21.2589C20.3707 21.0258 20.4612 20.8041 20.6276 20.6377H20.6298Z" fill="#D64000"></path><path d="M1.7878 9.54321C1.22656 9.31125 0.960658 8.66629 1.19262 8.10732C1.30464 7.83462 1.5151 7.62303 1.7878 7.51214C1.92471 7.4567 2.06728 7.42841 2.20985 7.42841C2.35242 7.42841 2.495 7.45557 2.62965 7.51214C3.19088 7.7441 3.45678 8.38907 3.22482 8.94804C3.1128 9.22073 2.90234 9.43233 2.62965 9.54321C2.35695 9.65523 2.05823 9.65523 1.78893 9.54321H1.78667H1.7878Z" fill="#D64000"></path><path d="M24.2167 16.4602C24.4894 16.5722 24.701 16.7827 24.8119 17.0554C24.9228 17.3281 24.9228 17.6245 24.8119 17.8961C24.5799 18.455 23.9372 18.7232 23.376 18.4901C23.1033 18.3781 22.8917 18.1676 22.7808 17.8949C22.6688 17.6222 22.6688 17.3258 22.7808 17.0542C22.9562 16.6322 23.3658 16.3764 23.7981 16.3764C23.9372 16.3764 24.0798 16.4036 24.2167 16.4602Z" fill="#D64000"></path><path d="M0 13.0068C0 12.2792 0.591784 11.6897 1.31709 11.6897C2.04239 11.6897 2.63417 12.2815 2.63417 13.0068C2.63417 13.7321 2.04239 14.3239 1.31709 14.3239C0.591784 14.3239 0 13.7332 0 13.0068Z" fill="#D64000"></path><path d="M23.3658 13.0068C23.3658 12.2792 23.9576 11.6897 24.6829 11.6897C25.4082 11.6897 26 12.2815 26 13.0068C26 13.7321 25.4082 14.3239 24.6829 14.3239C23.9576 14.3239 23.3658 13.7321 23.3658 13.0068Z" fill="#D64000"></path><path d="M0.780745 18.059C0.455999 17.2749 0.828268 16.3764 1.61241 16.0506C1.99147 15.8933 2.40787 15.8933 2.78919 16.0506C3.16825 16.2079 3.46357 16.5032 3.62085 16.8822C3.77813 17.2613 3.77813 17.6788 3.62085 18.059C3.46357 18.4381 3.16825 18.7334 2.78919 18.8907C2.41013 19.048 1.99373 19.048 1.61241 18.8907C1.23335 18.7334 0.938026 18.4381 0.780745 18.059Z" fill="#D64000"></path><path d="M22.3667 9.11663C22.2106 8.73758 22.2106 8.32118 22.3667 7.94099C22.524 7.56193 22.8193 7.2666 23.1984 7.10932C23.3885 7.02898 23.5876 6.99051 23.7834 6.99051C24.3876 6.99051 24.9601 7.34694 25.2057 7.93872C25.5304 8.72287 25.1582 9.62129 24.374 9.94717C23.995 10.1044 23.5786 10.1044 23.1972 9.94717C22.8182 9.78989 22.5228 9.49456 22.3656 9.1155H22.3678L22.3667 9.11663Z" fill="#D64000"></path><path d="M16.7385 16.7385C16.2565 17.2194 16.2565 18.0024 16.7385 18.4833C17.2206 18.9654 18.0024 18.9654 18.4845 18.4833C18.7176 18.2502 18.8465 17.9413 18.8465 17.6121C18.8465 17.2828 18.7176 16.9716 18.4845 16.7408C18.2446 16.5009 17.9289 16.381 17.6132 16.381C17.2975 16.381 16.9818 16.5032 16.7419 16.7408L16.7385 16.7385Z" fill="#D64000"></path><path d="M6.44399 12.2543C5.92236 12.1152 5.61346 11.5788 5.75263 11.0572C5.82166 10.8049 5.98233 10.5944 6.20864 10.4631C6.358 10.376 6.52546 10.3308 6.69406 10.3308C6.77779 10.3308 6.86378 10.3409 6.94752 10.3636C7.19984 10.4326 7.41031 10.5933 7.54156 10.8196C7.67169 11.0459 7.70676 11.3106 7.63887 11.5618C7.4997 12.0835 6.96336 12.3935 6.44173 12.2532H6.44399V12.2543Z" fill="#D64000"></path><path d="M19.048 15.6319C18.7956 15.5629 18.5852 15.4022 18.4539 15.1759C18.3238 14.9496 18.2887 14.6848 18.3566 14.4336C18.4256 14.1813 18.5863 13.9708 18.8126 13.8396C18.9631 13.7525 19.1317 13.7072 19.3003 13.7072C19.3704 13.7072 19.4406 13.714 19.5096 13.7298L19.556 13.7423C20.0776 13.8815 20.3865 14.4201 20.2474 14.9394C20.1783 15.1917 20.0177 15.4022 19.7914 15.5335C19.5651 15.6636 19.3003 15.6998 19.0491 15.6308V15.633L19.048 15.6319Z" fill="#D64000"></path><path d="M5.94273 14.8908C5.8341 14.4879 6.06154 14.0738 6.45191 13.9437L6.49604 13.9312C6.91244 13.8181 7.34355 14.0682 7.45557 14.4857C7.51101 14.6882 7.48273 14.8987 7.37636 15.0809C7.27226 15.2608 7.1014 15.3909 6.90113 15.4463C6.69858 15.5018 6.48925 15.4735 6.30595 15.3671C6.12604 15.263 5.99591 15.0922 5.94047 14.8919L5.94273 14.8896V14.8908Z" fill="#D64000"></path><path d="M18.9065 11.9952L18.8726 11.9748C18.7096 11.8685 18.5931 11.7089 18.5433 11.52C18.4313 11.1013 18.6791 10.6725 19.0977 10.5593C19.513 10.4473 19.9453 10.6962 20.0573 11.1138C20.1693 11.5302 19.9215 11.9613 19.5028 12.0733C19.3003 12.1287 19.091 12.0993 18.9077 11.9941V11.9963L18.9065 11.9952Z" fill="#D64000"></path><path d="M8.82357 17.9956L8.80094 18.0183C8.57124 18.248 8.19671 18.248 7.96701 18.0183C7.73731 17.7886 7.73731 17.4163 7.96701 17.1866C8.19671 16.9569 8.57124 16.9569 8.80094 17.1866C8.91296 17.2986 8.97406 17.4457 8.97406 17.603C8.97406 17.7501 8.92088 17.8882 8.82357 17.9956Z" fill="#D64000"></path><path d="M18.0251 7.96927C18.1371 8.08129 18.1982 8.22839 18.1982 8.38567C18.1982 8.54295 18.136 8.69118 18.0251 8.80207C17.7954 9.03177 17.4208 9.03177 17.1911 8.80207C17.0791 8.68892 17.018 8.54295 17.018 8.38567C17.018 8.22839 17.0802 8.08016 17.1911 7.96927C17.3043 7.85725 17.4503 7.79615 17.6075 7.79615C17.7648 7.79615 17.913 7.85612 18.0239 7.96814V7.97041L18.0251 7.96927Z" fill="#D64000"></path><path d="M11.9884 18.9088C12.0925 19.0887 12.1208 19.3014 12.0676 19.504C12.0122 19.7065 11.8843 19.874 11.7021 19.9792C11.52 20.0833 11.3095 20.1116 11.107 20.0584C10.6906 19.9464 10.4416 19.5164 10.5525 19.0989C10.608 18.8963 10.7358 18.7289 10.918 18.6236C11.0979 18.5195 11.3095 18.4913 11.5132 18.5444C11.7157 18.5999 11.8832 18.7277 11.9884 18.9099V18.9077V18.9088Z" fill="#D64000"></path><path d="M14.0059 7.09574C13.9018 6.91583 13.8735 6.70311 13.9267 6.50057C13.9822 6.29802 14.11 6.13056 14.2922 6.02533C14.4121 5.95631 14.5457 5.92123 14.6814 5.92123C14.7505 5.92123 14.8172 5.93028 14.8851 5.94725C15.0877 6.0027 15.2551 6.13056 15.3603 6.31273C15.4644 6.49265 15.4927 6.70537 15.4396 6.90791C15.3275 7.32431 14.8976 7.57324 14.48 7.46235C14.2775 7.40691 14.11 7.27905 14.0048 7.09688L14.0059 7.09574Z" fill="#D64000"></path><path d="M15.1827 18.4573L15.2234 18.4811C15.4271 18.6135 15.5731 18.8137 15.6364 19.0491C15.7756 19.5707 15.4667 20.1071 14.9451 20.2462C14.6916 20.3153 14.4291 20.279 14.2028 20.1489C13.9765 20.0188 13.8147 19.8072 13.7468 19.5549C13.6778 19.3025 13.714 19.0389 13.8441 18.8126C13.9742 18.5863 14.1858 18.4245 14.4382 18.3566C14.5242 18.334 14.6101 18.3238 14.6939 18.3238C14.8636 18.3238 15.0299 18.3679 15.1816 18.4562L15.1838 18.4584L15.1827 18.4573Z" fill="#D64000"></path><path d="M11.5641 7.64566C11.0447 7.78484 10.5073 7.47367 10.367 6.9543C10.2278 6.43267 10.5367 5.89634 11.0583 5.75716C11.142 5.73453 11.2269 5.72435 11.3106 5.72435C11.7429 5.72435 12.1389 6.01288 12.2555 6.44852C12.3946 6.97015 12.0857 7.50648 11.5641 7.64566Z" fill="#D64000"></path><path d="M8.3868 9.60998C9.06684 9.60998 9.61902 9.05893 9.61902 8.37775C9.61902 7.69658 9.06798 7.14553 8.3868 7.14553C7.70563 7.14553 7.15458 7.69658 7.15458 8.37775C7.15458 9.05893 7.70563 9.60998 8.3868 9.60998Z" fill="#D64000"></path><path d="M125.601 6.44229C128.499 6.44229 130.437 8.13164 130.437 10.7703C130.437 12.4427 129.552 13.779 128.18 14.4297L130.775 19.4457H127.651L125.43 15.0792H123.059V19.4457H120.235V6.44229H125.601ZM123.063 8.76303V12.7573H125.379C126.715 12.7573 127.562 11.9765 127.562 10.7692C127.562 9.56188 126.715 8.7619 125.379 8.7619H123.063V8.76416V8.76303Z" fill="#212223"></path><path d="M131.178 14.6888C131.178 11.7163 133.153 9.78592 136.144 9.78592C139.136 9.78592 141 11.5681 141.037 14.3731C141.037 14.6526 141.018 14.9671 140.961 15.2647H133.941V15.3937C133.998 16.7493 134.882 17.5674 136.218 17.5674C137.292 17.5674 138.043 17.1023 138.269 16.2118H140.885C140.583 18.0698 138.911 19.5554 136.331 19.5554C133.113 19.5554 131.176 17.6432 131.176 14.6888H131.178ZM138.367 13.555C138.178 12.385 137.369 11.7344 136.164 11.7344C134.958 11.7344 134.149 12.4224 134 13.555H138.367Z" fill="#212223"></path><path d="M151.36 9.89907V19.4479H149.007L148.764 18.2949C148.143 19.0383 147.298 19.5577 145.922 19.5577C143.928 19.5577 142.083 18.5733 142.083 15.1912V9.89681H144.736V14.837C144.736 16.5456 145.302 17.3829 146.618 17.3829C147.934 17.3829 148.705 16.4358 148.705 14.6707V9.89681H148.703L148.705 9.89907H151.36Z" fill="#212223"></path><path d="M152.93 7.22982H155.584V9.90473H157.787V12.1157H155.584V16.2967C155.584 16.9654 155.849 17.2437 156.524 17.2437H157.897V19.4536H155.694C153.849 19.4536 152.928 18.5439 152.928 16.7244V7.23208L152.93 7.22982Z" fill="#212223"></path><path d="M158.336 14.6888C158.336 11.7163 160.31 9.78592 163.304 9.78592C166.298 9.78592 168.159 11.5681 168.197 14.3731C168.197 14.6526 168.176 14.9671 168.121 15.2647H161.101V15.3937C161.157 16.7493 162.041 17.5674 163.378 17.5674C164.451 17.5674 165.203 17.1023 165.431 16.2118H168.045C167.743 18.0698 166.071 19.5554 163.492 19.5554C160.274 19.5554 158.336 17.6432 158.336 14.6888ZM165.525 13.555C165.336 12.385 164.526 11.7344 163.322 11.7344C162.118 11.7344 161.308 12.4224 161.159 13.555H165.525Z" fill="#212223"></path><path d="M175.267 9.89794V12.2775H174.213C172.631 12.2775 172.032 13.3174 172.032 14.7669V19.4491H169.378V9.9002H171.786L172.032 11.3293C172.558 10.475 173.309 9.9002 174.816 9.9002H175.268V9.89794H175.267Z" fill="#212223"></path><path d="M178.212 16.2706C178.307 17.1057 179.039 17.6828 180.339 17.6828C181.449 17.6828 182.127 17.3297 182.127 16.6621C182.127 15.8814 181.47 15.8271 179.907 15.6223C177.647 15.362 175.898 14.8608 175.898 12.8931C175.898 10.9254 177.574 9.7531 180.056 9.77234C182.652 9.77234 184.441 10.9061 184.573 12.8557H182.032C181.958 12.0942 181.222 11.6292 180.15 11.6292C179.079 11.6292 178.438 12.0014 178.438 12.6136C178.438 13.3389 179.266 13.4136 180.66 13.5799C182.882 13.8028 184.726 14.3052 184.726 16.4607C184.726 18.3549 182.919 19.5622 180.322 19.5622C177.725 19.5622 175.806 18.3164 175.692 16.2752H178.214H178.212V16.2706Z" fill="#212223"></path><path d="M44.4462 6.43776V8.83318H40.6262V19.44H37.8019V8.83318H34V6.43776H44.4462Z" fill="#212223"></path><path d="M54.6932 14.1468V19.4412H52.0398V14.372C52.0398 12.8105 51.3993 11.9381 50.0823 11.9381C48.7652 11.9381 47.9188 12.9044 47.9188 14.5383V19.4412H45.2643V6.43776H47.9188V11.0645C48.54 10.3211 49.4056 9.78252 50.7781 9.78252C52.9246 9.78252 54.6909 10.9163 54.6909 14.149H54.6932V14.1468Z" fill="#212223"></path><path d="M55.7036 14.6673C55.7036 11.7321 57.7177 9.78139 60.8045 9.78139C63.8913 9.78139 65.9043 11.7299 65.9043 14.6673C65.9043 17.6047 63.8902 19.5532 60.8045 19.5532C57.7189 19.5532 55.7036 17.6047 55.7036 14.6673ZM63.2113 14.6673C63.2113 13.0515 62.2902 11.9188 60.8011 11.9188C59.312 11.9188 58.4114 13.0526 58.4114 14.6673C58.4114 16.282 59.3154 17.4157 60.8011 17.4157C62.2868 17.4157 63.2113 16.282 63.2113 14.6673Z" fill="#212223"></path><path d="M82.2321 13.9601V19.4412H79.5786V14.1106C79.5786 12.6815 79.0525 11.9369 77.904 11.9369C76.7555 11.9369 75.9838 12.772 75.9838 14.2226V19.4434H73.3304V14.1128C73.3304 12.6837 72.8043 11.9392 71.6354 11.9392C70.4665 11.9392 69.7345 12.8127 69.7345 14.2418V19.4434H67.081V9.89454H69.3973L69.6405 11.0838C70.2233 10.3415 71.0719 9.80176 72.4829 9.78366C73.6699 9.76442 74.7799 10.1921 75.3807 11.3995C76.0585 10.3788 77.1878 9.78366 78.6553 9.78366C80.6491 9.78366 82.2298 10.8982 82.2298 13.9646L82.2321 13.9612V13.9601Z" fill="#212223"></path><path d="M85.7635 16.2672C85.8574 17.1023 86.5918 17.6794 87.8908 17.6794C89.0008 17.6794 89.6786 17.3263 89.6786 16.6588C89.6786 15.878 89.0212 15.8237 87.4574 15.6189C85.2 15.3586 83.4496 14.8574 83.4496 12.8897C83.4496 10.922 85.1242 9.74971 87.6101 9.76895C90.2058 9.76895 91.9948 10.9027 92.1272 12.8523H89.5869C89.5111 12.0908 88.7767 11.6258 87.7052 11.6258C86.6337 11.6258 85.991 11.998 85.991 12.6102C85.991 13.3355 86.8192 13.4102 88.2121 13.5765C90.4333 13.7983 92.2777 14.3018 92.2777 16.4573C92.2777 18.3515 90.4718 19.5588 87.8738 19.5588C85.2758 19.5588 83.3568 18.313 83.2448 16.2706H85.7669H85.7646L85.7624 16.2684L85.7635 16.2672Z" fill="#212223"></path><path d="M92.9339 14.6673C92.9339 11.7321 94.948 9.78139 98.0348 9.78139C101.122 9.78139 103.135 11.7299 103.135 14.6673C103.135 17.6047 101.12 19.5532 98.0348 19.5532C94.9492 19.5532 92.9339 17.6047 92.9339 14.6673ZM100.442 14.6673C100.442 13.0515 99.5205 11.9188 98.0314 11.9188C96.5423 11.9188 95.6417 13.0526 95.6417 14.6673C95.6417 16.282 96.5457 17.4157 98.0314 17.4157C99.5171 17.4157 100.442 16.282 100.442 14.6673Z" fill="#212223"></path><path d="M113.737 14.1457V19.44H111.083V14.407C111.083 12.7912 110.462 11.9369 109.126 11.9369C107.79 11.9369 106.962 12.9032 106.962 14.5564V19.4423H104.309V9.89341H106.625L106.869 11.0826C107.49 10.3392 108.375 9.78252 109.86 9.78252C111.948 9.78252 113.737 10.8767 113.737 14.149V14.1457Z" fill="#212223"></path></svg>